# xmcd CD database file
# Copyright (C) 1993-2000  Ti Kan
#
# Track frame offsets:
#	900
#	19350
#	50700
#	64500
#	87300
#	98925
#	115726
#	134252
#	156002
#	177753
#	203028
#
# Disc length: 2987 seconds
#
# Revision: 1
# Processed by: cddbd v1.5.2PL0 Copyright (c) Steve Scherf et al.
# Submitted via: xmcd 2.6 PL0
#
DISCID=910b9f0b
DTITLE=Tom Petty - One 30th Anniversary Concert
DYEAR=1900
DGENRE=
TTITLE0=Listen To Her Heart
TTITLE1=Mary Jane's Last Dance
TTITLE2=I Won't Back Down
TTITLE3=Free Fallin'
TTITLE4=I'm A Man
TTITLE5=Oh Well
TTITLE6=Handle With Care
TTITLE7=Stop Draggin' My Heart Around
TTITLE8=Learning To Fly
TTITLE9=Runnin' Down A Dream
TTITLE10=American Girl
EXTD=
EXTT0=
EXTT1=
EXTT2=
EXTT3=
EXTT4=
EXTT5=
EXTT6=
EXTT7=
EXTT8=
EXTT9=
EXTT10=
PLAYORDER=
